DBRep_DrawableShape

CASCADE Topology V1, (c) Matra-Datavision
Locations 0
Curve2ds 24
1 0.024999999999999991 0.011429999999999994 -1 3.4694469519536142e-17 
1 0.024999999999999994 -0.005080000000000002 -1 -5.2041704279304213e-17 
1 -0.025000000000000012 0.011429999999999996 -1.5176933298134803e-16 -1 
1 0.011429999999999997 -0.0050800000000000047 -1 7.5884666490674028e-17 
1 -0.025000000000000015 -0.011429999999999992 1 3.4694469519536142e-17 
1 -0.025000000000000022 -0.0050800000000000029 1 0 
1 0.024999999999999988 -0.011429999999999991 1.5176933298134806e-16 1 
1 -0.011429999999999999 -0.0050800000000000047 1 1.1382699973601102e-16 
1 0.011429999999999994 -0.0050800000000000012 0 1 
1 0.024999999999999994 -0.005080000000000002 1.0244429976240991e-15 1 
1 0.024999999999999991 0.011429999999999994 -1 3.4694469519536142e-17 
1 0.025000000000000005 0.0050800000000000099 -1 -3.1225022567582523e-16 
1 0.011429999999999997 -0.0050800000000000047 1.7074049960401638e-16 1 
1 -0.025000000000000008 -0.0050800000000000029 0 1 
1 -0.025000000000000012 0.011429999999999996 -1.5176933298134803e-16 -1 
1 0.011429999999999999 0.0050799999999999977 -1 0 
1 -0.025000000000000015 -0.011429999999999992 1 3.4694469519536142e-17 
1 -0.025000000000000012 0.0050800000000000116 1 -1.7347234759768076e-16 
1 0.024999999999999988 -0.011429999999999991 1.5176933298134806e-16 1 
1 -0.011429999999999996 0.0050799999999999986 1 -1.1382699973601102e-16 
1 -0.011429999999999999 -0.0050800000000000047 3.414809992080328e-16 1 
1 0.024999999999999974 -0.005080000000000002 6.8296199841606561e-16 1 
1 -0.011429999999999985 -0.0050800000000000003 -3.4148099920803295e-16 1 
1 -0.025000000000000022 -0.0050800000000000029 1.0244429976240979e-15 1 
Curves 12
1 0.022859999999999998 0.050000000000000003 0 0 -1 0 
1 0.022859999999999998 0 0 -1 0 0 
1 0 0 0 0 1 0 
1 0 0.050000000000000003 0 1 0 0 
1 0.022859999999999998 0.050000000000000003 0 0 0 1 
1 0.022859999999999998 0.050000000000000003 0.010160000000000001 0 -1 0 
1 0.022859999999999998 0 0 0 0 1 
1 0.022859999999999998 0 0.010160000000000001 -1 0 0 
1 0 0 0.010160000000000001 0 1 0 
1 0 0.050000000000000003 0.010160000000000001 1 0 0 
1 0 0.050000000000000003 0 0 0 1 
1 0 0 0 0 0 1 
Polygon3D 0
PolygonOnTriangulations 0
Surfaces 6
9 0 0 0 0 3 3 4 4 2 2 -0.0011430000000000088 -0.0024999999999999901 0  0.0072389999999999928 -0.0025000000000000204 0  0.015621000000000013 -0.0025000000000000079 0  0.02400300000000001 -0.002500000000000004 0  
-0.0011430000000000149 0.015833333333333303 0  0.0072389999999999738 0.015833333333333251 0  0.015621000000000006 0.015833333333333324 0  0.024002999999999997 0.015833333333333317 0  
-0.001143000000000003 0.034166666666666692 0  0.0072390000000000032 0.034166666666666672 0  0.015620999999999989 0.034166666666666713 0  0.024003 0.034166666666666685 0  
-0.0011430000000000121 0.052499999999999998 0  0.0072389999999999868 0.052500000000000005 0  0.015621000000000005 0.052499999999999998 0  0.024003000000000003 0.052499999999999998 0  

-0.027500000000000017 4
0.027499999999999993 4

-0.012573000000000003 4
0.012573000000000003 4

9 0 0 0 0 3 3 4 4 2 2 0.022860000000000009 -0.0025000000000000148 -0.00050799999999999554  0.022860000000000009 -0.0025000000000000226 0.0032173333333333385  0.022859999999999998 -0.0025000000000000118 0.0069426666666666673  0.022860000000000005 -0.0025000000000000118 0.010668000000000006  
0.022860000000000002 0.015833333333333335 -0.00050800000000001506  0.022860000000000002 0.015833333333333335 0.0032173333333333064  0.022859999999999991 0.01583333333333329 0.0069426666666666734  0.022860000000000005 0.015833333333333324 0.010668000000000007  
0.022860000000000016 0.034166666666666672 -0.00050799999999999869  0.022860000000000016 0.034166666666666644 0.0032173333333333342  0.022860000000000005 0.034166666666666699 0.0069426666666666751  0.022860000000000009 0.034166666666666665 0.010668000000000004  
0.022860000000000009 0.052500000000000005 -0.00050799999999999988  0.022860000000000009 0.052499999999999998 0.0032173333333333359  0.022859999999999998 0.052499999999999998 0.0069426666666666673  0.022860000000000005 0.052499999999999998 0.010668000000000006  

-0.027500000000000014 4
0.027499999999999993 4

-0.0055880000000000018 4
0.0055880000000000018 4

9 0 0 0 0 3 3 4 4 2 2 -0.0011430000000000105 0 -0.00050800000000000248  -0.0011430000000000101 0 0.0032173333333333372  -0.0011430000000000101 0 0.0069426666666666699  -0.0011430000000000108 0 0.010668000000000006  
0.0072389999999999911 0 -0.00050800000000000096  0.0072389999999999954 0 0.0032173333333333338  0.007238999999999992 0 0.0069426666666666725  0.0072389999999999937 0 0.010668000000000004  
0.015621000000000006 0 -0.00050800000000000996  0.015620999999999994 0 0.0032173333333333277  0.015620999999999986 0 0.0069426666666667011  0.015620999999999996 0 0.010668000000000026  
0.024003000000000007 0 -0.00050799999999999814  0.024002999999999997 0 0.0032173333333333442  0.024003 0 0.0069426666666666621  0.024003000000000007 0 0.010667999999999999  

-0.012573000000000001 4
0.012573000000000004 4

-0.0055880000000000018 4
0.0055880000000000018 4

9 0 0 0 0 3 3 4 4 2 2 0 -0.0025000000000000139 -0.00050799999999999641  0 -0.002500000000000007 0.0032173333333333359  0 -0.0025000000000000057 0.0069426666666666612  0 -0.0025000000000000204 0.010667999999999992  
0 0.015833333333333421 -0.00050800000000001072  0 0.01583333333333348 0.0032173333333333073  0 0.015833333333333515 0.0069426666666667193  0 0.015833333333333408 0.010668000000000019  
0 0.034166666666666685 -0.00050800000000001462  0 0.034166666666666706 0.0032173333333333069  0 0.034166666666666665 0.0069426666666666699  0 0.034166666666666685 0.010668000000000004  
0 0.052500000000000012 -0.00050799999999999641  0 0.052500000000000005 0.0032173333333333364  0 0.052500000000000019 0.0069426666666666621  0 0.052500000000000005 0.010667999999999999  

-0.027500000000000014 4
0.027499999999999993 4

-0.0055880000000000018 4
0.0055880000000000018 4

9 0 0 0 0 3 3 4 4 2 2 -0.0011430000000000008 0.050000000000000024 -0.00050799999999999728  -0.0011430000000000043 0.050000000000000017 0.0032173333333333429  -0.001143000000000004 0.050000000000000003 0.0069426666666666647  -0.0011430000000000008 0.050000000000000024 0.010668000000000002  
0.0072389999999999928 0.049999999999999989 -0.00050800000000001452  0.0072389999999999729 0.050000000000000003 0.0032173333333333238  0.0072389999999999616 0.049999999999999968 0.0069426666666667046  0.0072389999999999911 0.049999999999999989 0.010668000000000026  
0.015620999999999993 0.050000000000000031 -0.00050800000000000899  0.015620999999999986 0.05000000000000001 0.0032173333333333221  0.015620999999999996 0.05000000000000001 0.0069426666666666526  0.015620999999999993 0.050000000000000031 0.010668000000000004  
0.024003000000000007 0.050000000000000024 -0.00050799999999999901  0.024002999999999997 0.050000000000000017 0.0032173333333333407  0.024003 0.050000000000000003 0.0069426666666666595  0.024003000000000007 0.050000000000000024 0.010668000000000009  

-0.012573000000000001 4
0.012573000000000001 4

-0.0055880000000000018 4
0.0055880000000000018 4

9 0 0 0 0 3 3 4 4 2 2 -0.0011430000000000088 -0.0024999999999999901 0.010160000000000002  0.0072389999999999928 -0.0025000000000000204 0.010160000000000002  0.015621000000000013 -0.0025000000000000079 0.010160000000000002  0.02400300000000001 -0.002500000000000004 0.010160000000000002  
-0.0011430000000000149 0.015833333333333303 0.010159999999999999  0.0072389999999999738 0.015833333333333251 0.010159999999999999  0.015621000000000006 0.015833333333333324 0.010159999999999999  0.024002999999999997 0.015833333333333317 0.010159999999999999  
-0.001143000000000003 0.034166666666666692 0.010159999999999997  0.0072390000000000032 0.034166666666666672 0.010159999999999997  0.015620999999999989 0.034166666666666713 0.010159999999999997  0.024003 0.034166666666666685 0.010159999999999997  
-0.0011430000000000121 0.052499999999999998 0.010159999999999999  0.0072389999999999868 0.052500000000000005 0.010159999999999999  0.015621000000000005 0.052499999999999998 0.010159999999999999  0.024003000000000003 0.052499999999999998 0.010159999999999999  

-0.027500000000000017 4
0.027499999999999993 4

-0.012573000000000003 4
0.012573000000000003 4

Triangulations 0

TShapes 35
Ve
1e-07
0.02286 0.05 0
0 0

0101101
*
Ve
1e-07
0.02286 0 0
0 0

0101101
*
Ed
 1e-07 1 1 0
1  1 0 0 0.05
2  1 1 0 0 0.05
2  2 2 0 0 0.05
0

0101000
+35 0 -34 0 *
Ve
1e-07
0 0 0
0 0

0101101
*
Ed
 1e-07 1 1 0
1  2 0 0 0.02286
2  3 1 0 0 0.02286
2  4 3 0 0 0.02286
0

0101000
+34 0 -32 0 *
Ve
1e-07
0 0.05 0
0 0

0101101
*
Ed
 1e-07 1 1 0
1  3 0 0 0.05
2  5 1 0 0 0.05
2  6 4 0 0 0.05
0

0101000
+32 0 -30 0 *
Ed
 1e-07 1 1 0
1  4 0 0 0.02286
2  7 1 0 0 0.02286
2  8 5 0 0 0.02286
0

0101000
+30 0 -35 0 *
Wi

0101100
+33 0 +31 0 +29 0 +28 0 *
Fa
0  1e-07 1 0

0111000
+27 0 *
Ve
1e-07
0.02286 0.05 0.01016
0 0

0101101
*
Ed
 1e-07 1 1 0
1  5 0 0 0.01016
2  9 5 0 0 0.01016
2  10 2 0 0 0.01016
0

0101000
+35 0 -25 0 *
Ve
1e-07
0.02286 0 0.01016
0 0

0101101
*
Ed
 1e-07 1 1 0
1  6 0 0 0.05
2  11 6 0 0 0.05
2  12 2 0 0 0.05
0

0101000
+25 0 -23 0 *
Ed
 1e-07 1 1 0
1  7 0 0 0.01016
2  13 3 0 0 0.01016
2  14 2 0 0 0.01016
0

0101000
+34 0 -23 0 *
Wi

0101100
+24 0 +22 0 -21 0 -33 0 *
Fa
0  1e-07 2 0

0111000
+20 0 *
Ve
1e-07
0 0 0.01016
0 0

0101101
*
Ed
 1e-07 1 1 0
1  8 0 0 0.02286
2  15 6 0 0 0.02286
2  16 3 0 0 0.02286
0

0101000
+23 0 -18 0 *
Ve
1e-07
0 0.05 0.01016
0 0

0101101
*
Ed
 1e-07 1 1 0
1  9 0 0 0.05
2  17 6 0 0 0.05
2  18 4 0 0 0.05
0

0101000
+18 0 -16 0 *
Ed
 1e-07 1 1 0
1  10 0 0 0.02286
2  19 6 0 0 0.02286
2  20 5 0 0 0.02286
0

0101000
+16 0 -25 0 *
Wi

0101100
+22 0 +17 0 +15 0 +14 0 *
Fa
0  1e-07 6 0

0111000
+13 0 *
Ed
 1e-07 1 1 0
1  11 0 0 0.01016
2  21 5 0 0 0.01016
2  22 4 0 0 0.01016
0

0101000
+30 0 -16 0 *
Ed
 1e-07 1 1 0
1  12 0 0 0.01016
2  23 3 0 0 0.01016
2  24 4 0 0 0.01016
0

0101000
+32 0 -18 0 *
Wi

0101100
+29 0 +11 0 -15 0 -10 0 *
Fa
0  1e-07 4 0

0111000
+9 0 *
Wi

0101100
+21 0 +17 0 -10 0 -31 0 *
Fa
0  1e-07 3 0

0111000
+7 0 *
Wi

0101100
+28 0 +24 0 -14 0 -11 0 *
Fa
0  1e-07 5 0

0111000
+5 0 *
Sh

0101100
+26 0 +19 0 -12 0 -8 0 +6 0 -4 0 *
So

0100000
+3 0 *
Co

1100000
+2 0 *

+1 0 